<svg xmlns="http://www.w3.org/2000/svg" width="141" height="78.987" viewBox="0 0 141 78.987">
  <g id="Component_15_1" data-name="Component 15 – 1" transform="translate(3 3)">
    <g id="Rectangle_10" data-name="Rectangle 10" fill="#fff" stroke="#0e0e3d" stroke-width="3">
      <rect width="135" height="54" rx="6" stroke="none"/>
      <rect x="-1.5" y="-1.5" width="138" height="57" rx="7.5" fill="none"/>
    </g>
    <path id="Path_119" data-name="Path 119" d="M2.64,0A.463.463,0,0,1,2.3-.14a.463.463,0,0,1-.14-.34V-27.52a.463.463,0,0,1,.14-.34A.463.463,0,0,1,2.64-28H9.48a7.393,7.393,0,0,1,5.5,2.08,7.555,7.555,0,0,1,2.06,5.56V-7.64a7.555,7.555,0,0,1-2.06,5.56A7.393,7.393,0,0,1,9.48,0ZM6.8-4.2A.177.177,0,0,0,7-4l2.4-.04A2.58,2.58,0,0,0,11.54-5.1a4.668,4.668,0,0,0,.86-2.82V-20.08a4.557,4.557,0,0,0-.82-2.86A2.659,2.659,0,0,0,9.36-24H7a.177.177,0,0,0-.2.2ZM34.84-24.48a.463.463,0,0,1-.14.34.463.463,0,0,1-.34.14H25.72a.177.177,0,0,0-.2.2v7.56a.177.177,0,0,0,.2.2h5.12a.463.463,0,0,1,.34.14.463.463,0,0,1,.14.34v3.08a.463.463,0,0,1-.14.34.463.463,0,0,1-.34.14H25.72a.177.177,0,0,0-.2.2v7.6a.177.177,0,0,0,.2.2h8.64a.463.463,0,0,1,.34.14.463.463,0,0,1,.14.34V-.48a.463.463,0,0,1-.14.34.463.463,0,0,1-.34.14h-13a.463.463,0,0,1-.34-.14.463.463,0,0,1-.14-.34V-27.52a.463.463,0,0,1,.14-.34.463.463,0,0,1,.34-.14h13a.463.463,0,0,1,.34.14.463.463,0,0,1,.14.34ZM43.48,0a.479.479,0,0,1-.52-.44L37.24-27.48l-.04-.16q0-.36.44-.36h4.04a.451.451,0,0,1,.52.44L45.52-8.32q.04.12.12.12t.12-.12L49-27.56a.451.451,0,0,1,.52-.44h3.92q.52,0,.4.52L48.08-.44a.479.479,0,0,1-.52.44Z" transform="translate(72.739 41)" fill="#0e0e3d"/>
    <path id="Path_118" data-name="Path 118" d="M7.07-4.258H9.121q2.48,0,2.48,1.738a2.2,2.2,0,0,1-.869,1.855A3.927,3.927,0,0,1,8.3,0H4.785A3.516,3.516,0,0,1,2.5-.684,2.245,2.245,0,0,1,1.66-2.52a6.374,6.374,0,0,1,.566-2.012l7.891-19.414.215-.527A3.014,3.014,0,0,1,13.2-26.66a1.954,1.954,0,0,1,1.4.547,1.742,1.742,0,0,1,.576,1.309,3.673,3.673,0,0,1-.293,1.328l-.215.527Zm18.73,0h2.148q2.461,0,2.461,1.719a2.219,2.219,0,0,1-.879,1.865A3.893,3.893,0,0,1,27.109,0h-2.5a2.281,2.281,0,0,1-2.285-1.309A4.345,4.345,0,0,1,19.492,0H17.266A4.35,4.35,0,0,1,13.8-1.533,5.94,5.94,0,0,1,12.48-5.547a9.914,9.914,0,0,1,2.588-6.709,7.645,7.645,0,0,1,5.85-2.959,4.065,4.065,0,0,1,3.652,1.738,2.958,2.958,0,0,1,2.559-1.465,2,2,0,0,1,1.436.547,1.785,1.785,0,0,1,.576,1.348,3.556,3.556,0,0,1-.312,1.309l-.215.527Zm-7.09.1H19.2a2.068,2.068,0,0,0,2.129-1.309L22.7-8.848a3.05,3.05,0,0,0,.273-1.113,1.133,1.133,0,0,0-.518-.918,2,2,0,0,0-1.24-.391,3.7,3.7,0,0,0-2.773,1.66A5.4,5.4,0,0,0,17.09-6.172Q17.09-4.16,18.711-4.16Zm19.727-.1h4.922q2.461,0,2.461,1.738a2.2,2.2,0,0,1-.869,1.855A3.927,3.927,0,0,1,42.52,0h-9.1a2.874,2.874,0,0,1-1.924-.605,2.041,2.041,0,0,1-.713-1.641A3.467,3.467,0,0,1,32.09-4.512l6.387-6.152-2.168.078H35.82q-2.129,0-2.129-1.758a2.382,2.382,0,0,1,.84-1.846,2.964,2.964,0,0,1,2.051-.752h6.563q2.715,0,2.715,2.3a3.454,3.454,0,0,1-1.23,2.4ZM57.91.8h2.266q2.48,0,2.48,1.738a2.2,2.2,0,0,1-.869,1.855,3.927,3.927,0,0,1-2.432.664H56.191a31.358,31.358,0,0,1-2.051,4.453q-2.578,4.883-7.5,4.883a7.123,7.123,0,0,1-5.02-1.875A6.071,6.071,0,0,1,39.59,7.871a6.412,6.412,0,0,1,1.1-3.6,6.937,6.937,0,0,1,2.9-2.51A15.147,15.147,0,0,1,49.707.8h3.184l.566-1.406A6.932,6.932,0,0,1,50.8,0a5.175,5.175,0,0,1-3.389-1.064,3.406,3.406,0,0,1-1.3-2.764,9.3,9.3,0,0,1,.84-3.105l2.129-5.254.215-.547a3.085,3.085,0,0,1,2.91-2.207,2,2,0,0,1,1.436.547,1.83,1.83,0,0,1,.576,1.387,5.775,5.775,0,0,1-.508,1.836L51.8-6.5a6.58,6.58,0,0,0-.469,1.465q-.059.957,1.211.957a3.732,3.732,0,0,0,1.836-.527A2.489,2.489,0,0,0,55.566-5.8l2.617-6.387.2-.547a3.062,3.062,0,0,1,2.91-2.207,1.985,1.985,0,0,1,1.436.557,1.838,1.838,0,0,1,.576,1.377,3.636,3.636,0,0,1-.293,1.309l-.234.527ZM51.523,5.059H48.789q-4.492,0-4.492,2.813a2.146,2.146,0,0,0,.615,1.6,2.251,2.251,0,0,0,1.65.605,3.465,3.465,0,0,0,2.529-1.113A14.852,14.852,0,0,0,51.523,5.059Z" transform="translate(6.739 35.66)" fill="#0e0e3d"/>
    <path id="Path_143" data-name="Path 143" d="M2.222-6.5A2.689,2.689,0,0,1,4.409-7.533q2.345,0,2.365,2.646V0H5.51V-4.895a1.7,1.7,0,0,0-.366-1.183A1.466,1.466,0,0,0,4.026-6.46a1.825,1.825,0,0,0-1.08.328,2.228,2.228,0,0,0-.725.861V0H.957V-10.5H2.222ZM10.44-9.187V-7.4h1.381v.978H10.44v4.593a1.027,1.027,0,0,0,.185.667.777.777,0,0,0,.629.222,3.062,3.062,0,0,0,.6-.082V0a3.688,3.688,0,0,1-.971.136A1.575,1.575,0,0,1,9.606-.376a2.2,2.2,0,0,1-.431-1.456V-6.419H7.828V-7.4H9.175V-9.187Zm4.629,0V-7.4H16.45v.978H15.069v4.593a1.027,1.027,0,0,0,.185.667.777.777,0,0,0,.629.222,3.062,3.062,0,0,0,.6-.082V0a3.688,3.688,0,0,1-.971.136,1.575,1.575,0,0,1-1.278-.513A2.2,2.2,0,0,1,13.8-1.832V-6.419H12.458V-7.4H13.8V-9.187Zm9.161,5.571A4.429,4.429,0,0,1,23.458-.9,2.476,2.476,0,0,1,21.366.137a2.713,2.713,0,0,1-2.119-.854V2.844H17.982V-7.4h1.155l.062.82a2.605,2.605,0,0,1,2.146-.957,2.522,2.522,0,0,1,2.109,1,4.477,4.477,0,0,1,.776,2.8ZM22.966-3.76a3.268,3.268,0,0,0-.533-1.976A1.718,1.718,0,0,0,20.97-6.46a1.859,1.859,0,0,0-1.723,1.019v3.534A1.863,1.863,0,0,0,20.983-.9a1.71,1.71,0,0,0,1.446-.721A3.567,3.567,0,0,0,22.966-3.76Zm7.234,1.8a.931.931,0,0,0-.386-.8,3.718,3.718,0,0,0-1.347-.489,6.367,6.367,0,0,1-1.524-.492,2.169,2.169,0,0,1-.834-.684,1.635,1.635,0,0,1-.27-.943A1.919,1.919,0,0,1,26.607-6.9a3,3,0,0,1,1.965-.629,3.091,3.091,0,0,1,2.041.649A2.063,2.063,0,0,1,31.4-5.223H30.124a1.142,1.142,0,0,0-.441-.9,1.652,1.652,0,0,0-1.111-.376,1.729,1.729,0,0,0-1.08.3.947.947,0,0,0-.39.786.767.767,0,0,0,.362.69,4.458,4.458,0,0,0,1.309.444,6.821,6.821,0,0,1,1.535.506,2.239,2.239,0,0,1,.872.708,1.74,1.74,0,0,1,.284,1.008,1.893,1.893,0,0,1-.793,1.589,3.326,3.326,0,0,1-2.058.6,3.725,3.725,0,0,1-1.572-.314,2.557,2.557,0,0,1-1.07-.878,2.117,2.117,0,0,1-.386-1.22H26.85a1.309,1.309,0,0,0,.509,1.008A1.976,1.976,0,0,0,28.614-.9a2.039,2.039,0,0,0,1.152-.291A.893.893,0,0,0,30.2-1.962Zm2.927,1.3a.792.792,0,0,1,.195-.547.742.742,0,0,1,.584-.219.765.765,0,0,1,.591.219.776.776,0,0,1,.2.547.734.734,0,0,1-.2.526.778.778,0,0,1-.591.212.755.755,0,0,1-.584-.212A.748.748,0,0,1,33.127-.663ZM33.134-6.7a.792.792,0,0,1,.195-.547.742.742,0,0,1,.584-.219.765.765,0,0,1,.591.219.776.776,0,0,1,.2.547.734.734,0,0,1-.2.526.778.778,0,0,1-.591.212.755.755,0,0,1-.584-.212A.748.748,0,0,1,33.134-6.7ZM36.867.854H35.78L39.937-9.953h1.08Zm4.294,0H40.075L44.231-9.953h1.08ZM48.108,0H46.844V-10.5h1.265Zm6.646,0a2.657,2.657,0,0,1-.178-.779,2.822,2.822,0,0,1-2.105.916,2.611,2.611,0,0,1-1.794-.619,2,2,0,0,1-.7-1.569,2.091,2.091,0,0,1,.878-1.794,4.142,4.142,0,0,1,2.471-.639h1.23v-.581a1.42,1.42,0,0,0-.4-1.056,1.593,1.593,0,0,0-1.169-.393,1.844,1.844,0,0,0-1.135.342,1.007,1.007,0,0,0-.458.827H50.126a1.745,1.745,0,0,1,.393-1.07,2.683,2.683,0,0,1,1.066-.817,3.588,3.588,0,0,1,1.48-.3,2.924,2.924,0,0,1,2,.639,2.306,2.306,0,0,1,.752,1.76v3.4a4.162,4.162,0,0,0,.26,1.62V0Zm-2.1-.964a2.223,2.223,0,0,0,1.128-.308,1.861,1.861,0,0,0,.772-.8V-3.589h-.991q-2.324,0-2.324,1.36a1.151,1.151,0,0,0,.4.93A1.524,1.524,0,0,0,52.655-.964Zm6.393-.068h4.327V0H57.5V-.93l4.081-5.421h-4.02V-7.4H63.17v.9Zm8.225-.82L69-7.4h1.354L67.376,1.142q-.69,1.846-2.194,1.846l-.239-.021-.472-.089V1.853l.342.027a1.683,1.683,0,0,0,1-.26,1.88,1.88,0,0,0,.591-.95l.28-.752L64.047-7.4h1.381ZM71.137-3.76A4.333,4.333,0,0,1,71.943-6.5a2.551,2.551,0,0,1,2.112-1.036,2.565,2.565,0,0,1,2.058.889V-10.5h1.265V0H76.216l-.062-.793a2.575,2.575,0,0,1-2.112.93,2.526,2.526,0,0,1-2.1-1.053,4.382,4.382,0,0,1-.81-2.748Zm1.265.144a3.281,3.281,0,0,0,.52,1.969,1.68,1.68,0,0,0,1.436.711,1.845,1.845,0,0,0,1.757-1.08v-3.4A1.859,1.859,0,0,0,74.37-6.46a1.687,1.687,0,0,0-1.449.718A3.612,3.612,0,0,0,72.4-3.616ZM82.465.137a3.232,3.232,0,0,1-2.447-.988,3.666,3.666,0,0,1-.943-2.642v-.232a4.438,4.438,0,0,1,.42-1.965,3.28,3.28,0,0,1,1.176-1.354,2.956,2.956,0,0,1,1.637-.489,2.77,2.77,0,0,1,2.242.95,4.114,4.114,0,0,1,.8,2.721v.526H80.339a2.629,2.629,0,0,0,.639,1.767A2.009,2.009,0,0,0,82.534-.9a2.2,2.2,0,0,0,1.135-.273,2.851,2.851,0,0,0,.813-.725l.772.6A3.106,3.106,0,0,1,82.465.137Zm-.157-6.631a1.687,1.687,0,0,0-1.285.557,2.708,2.708,0,0,0-.643,1.562h3.705v-.1a2.409,2.409,0,0,0-.52-1.494A1.588,1.588,0,0,0,82.308-6.494Zm6.912,4.778L91.053-7.4h1.292L89.692,0h-.964l-2.68-7.4h1.292ZM92.913-.663a.792.792,0,0,1,.195-.547.742.742,0,0,1,.584-.219.765.765,0,0,1,.591.219.776.776,0,0,1,.2.547.734.734,0,0,1-.2.526.778.778,0,0,1-.591.212.755.755,0,0,1-.584-.212A.748.748,0,0,1,92.913-.663Zm3.378-3.1a4.369,4.369,0,0,1,.427-1.955,3.187,3.187,0,0,1,1.189-1.34,3.238,3.238,0,0,1,1.74-.472,3.119,3.119,0,0,1,2.444,1.046,4.024,4.024,0,0,1,.933,2.782v.089a4.407,4.407,0,0,1-.414,1.938,3.14,3.14,0,0,1-1.183,1.336,3.275,3.275,0,0,1-1.767.479A3.111,3.111,0,0,1,97.225-.909a4,4,0,0,1-.933-2.769Zm1.271.15a3.164,3.164,0,0,0,.571,1.976A1.827,1.827,0,0,0,99.662-.9a1.816,1.816,0,0,0,1.531-.755,3.46,3.46,0,0,0,.567-2.116,3.159,3.159,0,0,0-.578-1.972,1.836,1.836,0,0,0-1.535-.755,1.816,1.816,0,0,0-1.511.745A3.434,3.434,0,0,0,97.563-3.616Zm8.3-3.78.041.93a2.7,2.7,0,0,1,2.215-1.066q2.345,0,2.365,2.646V0H109.22V-4.895a1.7,1.7,0,0,0-.366-1.183,1.466,1.466,0,0,0-1.118-.383,1.825,1.825,0,0,0-1.08.328,2.228,2.228,0,0,0-.725.861V0h-1.265V-7.4ZM113.821,0h-1.265V-10.5h1.265Zm3.453,0H116.01V-7.4h1.265Zm-1.367-9.358a.755.755,0,0,1,.188-.52.706.706,0,0,1,.557-.212.717.717,0,0,1,.561.212.747.747,0,0,1,.191.52.722.722,0,0,1-.191.513.73.73,0,0,1-.561.205.718.718,0,0,1-.557-.205A.73.73,0,0,1,115.908-9.358ZM120.551-7.4l.041.93a2.7,2.7,0,0,1,2.215-1.066q2.345,0,2.365,2.646V0h-1.265V-4.895a1.7,1.7,0,0,0-.366-1.183,1.466,1.466,0,0,0-1.118-.383,1.825,1.825,0,0,0-1.08.328,2.228,2.228,0,0,0-.725.861V0h-1.265V-7.4ZM130.2.137a3.232,3.232,0,0,1-2.447-.988,3.666,3.666,0,0,1-.943-2.642v-.232a4.438,4.438,0,0,1,.42-1.965,3.28,3.28,0,0,1,1.176-1.354,2.956,2.956,0,0,1,1.637-.489,2.77,2.77,0,0,1,2.242.95,4.114,4.114,0,0,1,.8,2.721v.526h-5.011a2.629,2.629,0,0,0,.639,1.767,2.009,2.009,0,0,0,1.555.673,2.2,2.2,0,0,0,1.135-.273,2.851,2.851,0,0,0,.813-.725l.772.6A3.106,3.106,0,0,1,130.2.137Zm-.157-6.631a1.687,1.687,0,0,0-1.285.557,2.708,2.708,0,0,0-.643,1.562h3.705v-.1a2.409,2.409,0,0,0-.52-1.494A1.588,1.588,0,0,0,130.047-6.494Z" transform="translate(1 73)" fill="#fff"/>
  </g>
</svg>
